<svg xmlns="http://www.w3.org/2000/svg" viewBox="0 0 120 120" fill="none" role="img" aria-label="Continuous">
  <rect width="120" height="120" rx="28" fill="var(--agent-plate, #6366f1)"/>
  <path d="M28 60c0-12 10-22 22-22 8 0 14 4 18 10 4-6 10-10 18-10 12 0 22 10 22 22s-10 22-22 22c-8 0-14-4-18-10-4 6-10 10-18 10-12 0-22-10-22-22z" fill="none" stroke="var(--agent-face, #faf8f5)" stroke-width="8" stroke-linecap="round"/>
  <path d="M28 60c0-12 10-22 22-22 8 0 14 4 18 10 4-6 10-10 18-10 12 0 22 10 22 22s-10 22-22 22c-8 0-14-4-18-10-4 6-10 10-18 10-12 0-22-10-22-22z" fill="none" stroke="var(--agent-stroke, #ffffff)" stroke-width="3.5" stroke-linecap="round"/>
  <circle cx="50" cy="60" r="6" fill="var(--agent-highlight, #ffffff)"/>
  <circle cx="70" cy="60" r="6" fill="var(--agent-face, #faf8f5)"/>
</svg>
