<svg xmlns="http://www.w3.org/2000/svg" viewBox="0 0 64 64" fill="none" role="img" aria-label="forge isometric avatar">
  <rect width="64" height="64" rx="14" fill="#ea580c22"/>
  <g><polygon points="20,40 44,40 40,46 24,46" fill="#9a3412" stroke="#1a1410" stroke-width="1.5"/><polygon points="24,40 40,40 36,36 28,36" fill="#c2410c" stroke="#1a1410" stroke-width="1.5"/><polygon points="32,27 40,31 32,35 24,31" fill="#fdba74" stroke="#1a1410" stroke-width="1.5"/><polygon points="24,31 32,35 32,45 24,41" fill="#ea580c" stroke="#1a1410" stroke-width="1.5"/><polygon points="32,35 40,31 40,41 32,45" fill="#f97316" stroke="#1a1410" stroke-width="1.5"/><polygon points="26,21 32,24 26,27 20,24" fill="#fed7aa" stroke="#1a1410" stroke-width="1.5"/><polygon points="20,24 26,27 26,35 20,32" fill="#fb923c" stroke="#1a1410" stroke-width="1.5"/><path d="M42 18l2 4 4 1-3 3 1 4-4-2-4 2 1-4-3-3 4-1z" fill="#fbbf24" stroke="#1a1410" stroke-width="1"/></g>
</svg>