<svg xmlns="http://www.w3.org/2000/svg" viewBox="0 0 96 96" fill="none" role="img" aria-label="You">
  <defs>
    <linearGradient id="you-bg" x1="12" y1="8" x2="88" y2="92" gradientUnits="userSpaceOnUse">
      <stop stop-color="#1c1917"/>
      <stop offset="1" stop-color="#44403c"/>
    </linearGradient>
    <linearGradient id="you-skin" x1="36" y1="28" x2="64" y2="72" gradientUnits="userSpaceOnUse">
      <stop stop-color="#f5d0b0"/>
      <stop offset="1" stop-color="#e8b896"/>
    </linearGradient>
    <radialGradient id="you-glow" cx="0" cy="0" r="1" gradientUnits="userSpaceOnUse" gradientTransform="translate(48 40) rotate(90) scale(36)">
      <stop stop-color="#fff7ed" stop-opacity=".35"/>
      <stop offset="1" stop-color="#fff7ed" stop-opacity="0"/>
    </radialGradient>
  </defs>
  <rect width="96" height="96" rx="28" fill="url(#you-bg)"/>
  <circle cx="48" cy="40" r="36" fill="url(#you-glow)"/>
  <!-- hair -->
  <path d="M28 42c0-14 9-24 20-24s20 10 20 24c0 2-1 4-2 4H30c-1 0-2-2-2-4z" fill="#292524"/>
  <path d="M28 40c2-10 10-18 20-18 4 0 8 1 11 3-3-1-6-1-9-1-12 0-20 9-20 20 0 1 0 2 .2 3H28c0-2 0-4 0-7z" fill="#1c1917"/>
  <!-- face -->
  <ellipse cx="48" cy="50" rx="18" ry="20" fill="url(#you-skin)"/>
  <!-- eyes -->
  <ellipse cx="41" cy="48" rx="2.2" ry="2.6" fill="#1c1917"/>
  <ellipse cx="55" cy="48" rx="2.2" ry="2.6" fill="#1c1917"/>
  <circle cx="41.6" cy="47.4" r="0.7" fill="#fff"/>
  <circle cx="55.6" cy="47.4" r="0.7" fill="#fff"/>
  <!-- brows -->
  <path d="M37 43.5c2-1.5 5-1.8 7-.4" stroke="#44403c" stroke-width="1.4" stroke-linecap="round"/>
  <path d="M52 43.1c2-1.2 5-1.4 7 .1" stroke="#44403c" stroke-width="1.4" stroke-linecap="round"/>
  <!-- nose -->
  <path d="M48 50v5.5" stroke="#d4a574" stroke-width="1.5" stroke-linecap="round"/>
  <!-- smile -->
  <path d="M42 58c2.2 2.5 9.8 2.5 12 0" stroke="#b45309" stroke-width="1.6" stroke-linecap="round"/>
  <!-- shoulders -->
  <path d="M18 96c6-16 16-24 30-24s24 8 30 24" fill="#0f766e"/>
  <path d="M28 88c5-6 11-9 20-9s15 3 20 9" fill="#14b8a6" opacity=".35"/>
</svg>
